<svg width="40" height="44" viewBox="0 0 40 44" fill="none" xmlns="http://www.w3.org/2000/svg">
<mask id="path-1-outside-1_108_142" maskUnits="userSpaceOnUse" x="-0.806641" y="16.1538" width="27" height="27" fill="black">
<rect fill="white" x="-0.806641" y="16.1538" width="27" height="27"/>
<path d="M12.5872 35.6077L18.9211 17.3846H23.8041L15.2057 42.1538H10.0041L1.40567 17.3846H6.28874L12.5872 35.6077Z"/>
</mask>
<path d="M12.5872 35.6077L18.9211 17.3846H23.8041L15.2057 42.1538H10.0041L1.40567 17.3846H6.28874L12.5872 35.6077Z" fill="#DEDEDE"/>
<path d="M12.5872 35.6077L11.6421 35.9343L12.5846 38.6612L13.5318 35.936L12.5872 35.6077ZM18.9211 17.3846V16.3846H18.2099L17.9765 17.0563L18.9211 17.3846ZM23.8041 17.3846L24.7488 17.7125L25.2098 16.3846H23.8041V17.3846ZM15.2057 42.1538V43.1538H15.9171L16.1504 42.4818L15.2057 42.1538ZM10.0041 42.1538L9.05943 42.4818L9.29273 43.1538H10.0041V42.1538ZM1.40567 17.3846V16.3846H-1.64509e-05L0.46097 17.7125L1.40567 17.3846ZM6.28874 17.3846L7.23388 17.0579L7.00116 16.3846H6.28874V17.3846ZM13.5318 35.936L19.8656 17.7129L17.9765 17.0563L11.6426 35.2793L13.5318 35.936ZM18.9211 18.3846H23.8041V16.3846H18.9211V18.3846ZM22.8594 17.0566L14.261 41.8259L16.1504 42.4818L24.7488 17.7125L22.8594 17.0566ZM15.2057 41.1538H10.0041V43.1538H15.2057V41.1538ZM10.9488 41.8259L2.35036 17.0566L0.46097 17.7125L9.05943 42.4818L10.9488 41.8259ZM1.40567 18.3846H6.28874V16.3846H1.40567V18.3846ZM5.3436 17.7112L11.6421 35.9343L13.5323 35.281L7.23388 17.0579L5.3436 17.7112Z" fill="black" mask="url(#path-1-outside-1_108_142)"/>
<mask id="path-3-outside-2_108_142" maskUnits="userSpaceOnUse" x="5.1933" y="-2.18557e-06" width="27" height="27" fill="black">
<rect fill="white" x="5.1933" y="-2.18557e-06" width="27" height="27"/>
<path d="M18.7995 7.54615L12.4656 25.7692L7.58253 25.7692L16.181 0.999999L21.3825 0.999999L29.981 25.7692L25.0979 25.7692L18.7995 7.54615Z"/>
</mask>
<path d="M18.7995 7.54615L12.4656 25.7692L7.58253 25.7692L16.181 0.999999L21.3825 0.999999L29.981 25.7692L25.0979 25.7692L18.7995 7.54615Z" fill="#DEDEDE"/>
<path d="M18.7995 7.54615L19.7446 7.21948L18.8021 4.49261L17.8549 7.21784L18.7995 7.54615ZM12.4656 25.7692L12.4656 26.7692L13.1767 26.7692L13.4102 26.0975L12.4656 25.7692ZM7.58253 25.7692L6.63784 25.4413L6.17685 26.7692L7.58253 26.7692L7.58253 25.7692ZM16.181 0.999999L16.181 -1.22499e-06L15.4696 -1.28719e-06L15.2363 0.672053L16.181 0.999999ZM21.3825 0.999999L22.3272 0.672054L22.0939 -7.08069e-07L21.3825 -7.70262e-07L21.3825 0.999999ZM29.981 25.7692L29.981 26.7692L31.3867 26.7692L30.9257 25.4413L29.981 25.7692ZM25.0979 25.7692L24.1528 26.0959L24.3855 26.7692L25.0979 26.7692L25.0979 25.7692ZM17.8549 7.21784L11.521 25.4409L13.4102 26.0975L19.744 7.87446L17.8549 7.21784ZM12.4656 24.7692L7.58253 24.7692L7.58253 26.7692L12.4656 26.7692L12.4656 24.7692ZM8.52723 26.0972L17.1257 1.32794L15.2363 0.672053L6.63784 25.4413L8.52723 26.0972ZM16.181 2L21.3825 2L21.3825 -7.70262e-07L16.181 -1.22499e-06L16.181 2ZM20.4378 1.32794L29.0363 26.0972L30.9257 25.4413L22.3272 0.672054L20.4378 1.32794ZM29.981 24.7692L25.0979 24.7692L25.0979 26.7692L29.981 26.7692L29.981 24.7692ZM26.0431 25.4426L19.7446 7.21948L17.8543 7.87282L24.1528 26.0959L26.0431 25.4426Z" fill="black" mask="url(#path-3-outside-2_108_142)"/>
<g clip-path="url(#clip0_108_142)">
<path d="M21.5871 36.6075L27.921 18.3845H32.8041L24.2056 43.1537H19.0041L10.4056 18.3845H15.2887L21.5871 36.6075Z" fill="#DEDEDE"/>
<path d="M27.7994 8.54615L21.4655 26.7692H16.5825L25.181 2L30.3825 2L38.9809 26.7692H34.0979L27.7994 8.54615Z" fill="#DEDEDE"/>
</g>
<defs>
<clipPath id="clip0_108_142">
<rect width="29" height="42" fill="white" transform="translate(10.1934 1.15381)"/>
</clipPath>
</defs>
</svg>
